<svg xmlns="http://www.w3.org/2000/svg" width="512" height="512" viewBox="0 0 512 512" version="1.1">
    <path d="M 175.334 101.481 C 164.122 103.515, 155.963 106.635, 147.740 112.034 C 128.774 124.485, 117.603 144.397, 116.342 168 C 115.211 189.170, 125.256 211.264, 141.989 224.410 C 165 242.489, 196.354 244.807, 221.283 230.274 C 229.678 225.380, 240.220 215.033, 245.496 206.510 C 250.684 198.129, 253.532 189.806, 255.137 178.338 C 257.123 164.139, 253.739 148.078, 245.990 134.922 C 234.965 116.206, 216.366 104.244, 193.303 101.036 C 184.507 99.812, 184.532 99.812, 175.334 101.481 M 174.528 111.998 C 162.708 114.137, 153.707 119.127, 143.995 128.927 C 130.552 142.491, 124.979 158.222, 127.076 176.680 C 129.860 201.177, 145.135 219.280, 170 227.549 C 177.668 230.100, 194.446 230.124, 202 227.595 C 219.645 221.688, 231.815 211.359, 239.337 195.905 C 245.518 183.204, 247.136 172.306, 244.684 159.893 C 240.492 138.680, 225.902 121.798, 205.298 114.319 C 197.757 111.582, 182.987 110.468, 174.528 111.998 M 179.500 140.003 C 172.393 140.774, 162.269 145.348, 155.064 151.044 C 149.019 155.822, 148.188 159.767, 152.615 162.667 C 155.557 164.595, 155.157 164.751, 165.533 157.642 C 179.279 148.225, 194.727 149.352, 209.931 160.882 C 216.002 165.486, 216.629 165.649, 219.777 163.443 C 223.160 161.074, 222.625 157.326, 218.325 153.270 C 207.407 142.973, 194.084 138.421, 179.500 140.003 M 271.500 144 C 271.160 144.550, 271.194 145.505, 271.576 146.123 C 271.958 146.740, 272.801 149.328, 273.450 151.873 L 274.630 156.500 329.065 157 L 383.500 157.500 383.754 267.250 C 383.894 327.613, 383.669 376.984, 383.254 376.965 C 382.839 376.945, 381.375 376.286, 380 375.500 C 374.887 372.577, 373.111 373.463, 360.760 385.099 L 349.019 396.160 346.118 393.830 C 344.522 392.549, 339.455 388.076, 334.858 383.892 C 325.248 375.145, 323.288 373.938, 320.437 375.017 C 319.302 375.446, 313.589 380.118, 307.741 385.399 C 301.893 390.679, 296.521 394.997, 295.804 394.993 C 295.087 394.989, 289.997 391.013, 284.494 386.159 C 268.050 371.652, 268.640 371.670, 254.500 385.250 C 248.631 390.887, 243.488 395.626, 243.073 395.780 C 242.658 395.934, 237.517 391.534, 231.649 386.001 C 225.780 380.469, 219.798 375.493, 218.354 374.945 C 215.059 373.692, 214.540 374.028, 200.668 386.406 L 189.836 396.071 178.038 385.036 C 165.594 373.395, 163.035 372.146, 158.559 375.532 C 157.491 376.339, 156.254 377, 155.809 377 C 155.364 377, 155 349.387, 155 315.637 L 155 254.275 148.627 251.137 C 145.122 249.412, 141.972 248, 141.627 248 C 141.282 248, 141 280.400, 141 320 C 141 390.667, 141.037 392.037, 143 394 C 145.811 396.811, 149.735 396.493, 156.332 392.920 C 159.460 391.226, 162.409 389.988, 162.886 390.170 C 163.363 390.351, 168.564 395, 174.444 400.500 C 186.325 411.613, 188.571 413.126, 191.500 411.983 C 192.600 411.554, 198.598 406.657, 204.828 401.102 C 211.058 395.546, 216.321 391, 216.523 391 C 216.725 391, 221.527 395.337, 227.195 400.638 C 239.628 412.266, 241.261 413.402, 244.405 412.613 C 245.736 412.279, 251.540 407.504, 257.302 402.003 C 263.064 396.501, 268.391 392.006, 269.139 392.014 C 269.888 392.022, 274.100 395.232, 278.500 399.148 C 288.595 408.133, 293.847 412, 295.956 412 C 298.166 412, 302.653 408.598, 313.202 398.925 L 321.978 390.877 332.739 400.547 C 345.813 412.295, 347.327 413.348, 349.943 412.518 C 351.066 412.162, 357.403 406.949, 364.027 400.935 C 370.650 394.921, 376.291 390, 376.562 390 C 376.833 390, 380.178 391.636, 383.995 393.636 C 390.734 397.166, 391.011 397.223, 393.513 395.584 C 394.930 394.655, 396.519 392.765, 397.045 391.383 C 397.632 389.836, 398 342.764, 398 269.012 L 398 149.153 395.411 146.077 L 392.822 143 332.470 143 C 293.314 143, 271.901 143.351, 271.500 144 M 178.011 162.552 C 171.283 164.427, 163.201 169.707, 162.383 172.763 C 161.744 175.150, 163.120 177.459, 166.148 179.079 C 167.530 179.819, 169.630 179.174, 174.991 176.366 C 183.993 171.651, 188.768 171.549, 196.494 175.910 C 203.164 179.674, 206.397 179.850, 208.548 176.567 C 210.496 173.593, 209.484 171.221, 204.737 167.639 C 197.146 161.911, 187.142 160.007, 178.011 162.552 M 181.120 183.628 C 179.842 184.524, 178.206 186.658, 177.486 188.371 C 176.391 190.975, 176.410 192.045, 177.599 194.891 C 179.456 199.335, 181.686 200.929, 186.104 200.968 C 194.510 201.042, 198.223 191.069, 192.077 184.923 C 188.741 181.587, 184.714 181.111, 181.120 183.628 M 275 218.987 L 275 226 284.750 226.106 C 314.134 226.426, 345.447 225.953, 346.221 225.179 C 346.709 224.691, 346.972 221.638, 346.804 218.396 L 346.500 212.500 310.750 212.237 L 275 211.975 275 218.987 M 197.500 258.907 L 192.500 259.500 192.500 265.500 L 192.500 271.500 266.729 271.756 L 340.959 272.013 341.481 269.756 C 341.906 267.916, 341.758 263.601, 341.101 258.750 C 340.983 257.877, 204.935 258.026, 197.500 258.907 M 192 311 L 192 318 266.500 318 L 341 318 341 311 L 341 304 266.500 304 L 192 304 192 311" stroke="none" fill="#eaedef" fill-rule="evenodd"/>
    <path d="M 104 10.072 C 100.425 10.523, 95.700 11.431, 93.500 12.090 C 79.555 16.268, 79.228 16.392, 70.500 20.815 C 62.562 24.837, 61.930 25.224, 54.525 30.607 C 43.340 38.738, 29.952 53.379, 24.424 63.525 C 23.346 65.503, 18.416 75.180, 17.049 78 C 16.649 78.825, 15.529 82.200, 14.558 85.500 C 13.588 88.800, 12.402 92.625, 11.923 94 C 9.327 101.442, 9 119.540, 9 256 C 9 392.460, 9.327 410.558, 11.923 418 C 12.402 419.375, 13.588 423.200, 14.558 426.500 C 15.529 429.800, 16.649 433.175, 17.049 434 C 18.416 436.820, 23.346 446.497, 24.424 448.475 C 27.073 453.336, 36.227 465.013, 41.607 470.393 C 46.987 475.773, 58.664 484.927, 63.525 487.576 C 65.503 488.654, 75.180 493.584, 78 494.951 C 78.825 495.351, 82.200 496.471, 85.500 497.442 C 88.800 498.412, 92.625 499.598, 94 500.077 C 101.442 502.673, 119.540 503, 256 503 C 392.460 503, 410.558 502.673, 418 500.077 C 419.375 499.598, 423.200 498.412, 426.500 497.442 C 429.800 496.471, 433.175 495.351, 434 494.951 C 436.820 493.584, 446.497 488.654, 448.475 487.576 C 449.561 486.984, 453.611 484.202, 457.475 481.393 C 472.603 470.395, 484.069 456.359, 493.330 437.500 C 495.299 433.490, 495.709 432.394, 497.442 426.500 C 498.412 423.200, 499.598 419.375, 500.077 418 C 502.673 410.558, 503 392.460, 503 256 C 503 119.540, 502.673 101.442, 500.077 94 C 499.598 92.625, 498.412 88.800, 497.442 85.500 C 496.471 82.200, 495.351 78.825, 494.951 78 C 493.584 75.180, 488.654 65.503, 487.576 63.525 C 484.927 58.664, 475.773 46.987, 470.393 41.607 C 465.013 36.227, 453.336 27.073, 448.475 24.424 C 446.497 23.346, 436.820 18.416, 434 17.049 C 433.175 16.649, 429.800 15.529, 426.500 14.558 C 423.200 13.588, 419.375 12.402, 418 11.923 C 410.509 9.309, 392.720 9.005, 254.526 9.127 C 175.312 9.197, 107.575 9.622, 104 10.072 M 175.334 101.481 C 164.122 103.515, 155.963 106.635, 147.740 112.034 C 128.774 124.485, 117.603 144.397, 116.342 168 C 115.211 189.170, 125.256 211.264, 141.989 224.410 C 165 242.489, 196.354 244.807, 221.283 230.274 C 229.678 225.380, 240.220 215.033, 245.496 206.510 C 250.684 198.129, 253.532 189.806, 255.137 178.338 C 257.123 164.139, 253.739 148.078, 245.990 134.922 C 234.965 116.206, 216.366 104.244, 193.303 101.036 C 184.507 99.812, 184.532 99.812, 175.334 101.481 M 174.528 111.998 C 162.708 114.137, 153.707 119.127, 143.995 128.927 C 130.552 142.491, 124.979 158.222, 127.076 176.680 C 129.860 201.177, 145.135 219.280, 170 227.549 C 177.668 230.100, 194.446 230.124, 202 227.595 C 219.645 221.688, 231.815 211.359, 239.337 195.905 C 245.518 183.204, 247.136 172.306, 244.684 159.893 C 240.492 138.680, 225.902 121.798, 205.298 114.319 C 197.757 111.582, 182.987 110.468, 174.528 111.998 M 179.500 140.003 C 172.393 140.774, 162.269 145.348, 155.064 151.044 C 149.019 155.822, 148.188 159.767, 152.615 162.667 C 155.557 164.595, 155.157 164.751, 165.533 157.642 C 179.279 148.225, 194.727 149.352, 209.931 160.882 C 216.002 165.486, 216.629 165.649, 219.777 163.443 C 223.160 161.074, 222.625 157.326, 218.325 153.270 C 207.407 142.973, 194.084 138.421, 179.500 140.003 M 271.500 144 C 271.160 144.550, 271.194 145.505, 271.576 146.123 C 271.958 146.740, 272.801 149.328, 273.450 151.873 L 274.630 156.500 329.065 157 L 383.500 157.500 383.754 267.250 C 383.894 327.613, 383.669 376.984, 383.254 376.965 C 382.839 376.945, 381.375 376.286, 380 375.500 C 374.887 372.577, 373.111 373.463, 360.760 385.099 L 349.019 396.160 346.118 393.830 C 344.522 392.549, 339.455 388.076, 334.858 383.892 C 325.248 375.145, 323.288 373.938, 320.437 375.017 C 319.302 375.446, 313.589 380.118, 307.741 385.399 C 301.893 390.679, 296.521 394.997, 295.804 394.993 C 295.087 394.989, 289.997 391.013, 284.494 386.159 C 268.050 371.652, 268.640 371.670, 254.500 385.250 C 248.631 390.887, 243.488 395.626, 243.073 395.780 C 242.658 395.934, 237.517 391.534, 231.649 386.001 C 225.780 380.469, 219.798 375.493, 218.354 374.945 C 215.059 373.692, 214.540 374.028, 200.668 386.406 L 189.836 396.071 178.038 385.036 C 165.594 373.395, 163.035 372.146, 158.559 375.532 C 157.491 376.339, 156.254 377, 155.809 377 C 155.364 377, 155 349.387, 155 315.637 L 155 254.275 148.627 251.137 C 145.122 249.412, 141.972 248, 141.627 248 C 141.282 248, 141 280.400, 141 320 C 141 390.667, 141.037 392.037, 143 394 C 145.811 396.811, 149.735 396.493, 156.332 392.920 C 159.460 391.226, 162.409 389.988, 162.886 390.170 C 163.363 390.351, 168.564 395, 174.444 400.500 C 186.325 411.613, 188.571 413.126, 191.500 411.983 C 192.600 411.554, 198.598 406.657, 204.828 401.102 C 211.058 395.546, 216.321 391, 216.523 391 C 216.725 391, 221.527 395.337, 227.195 400.638 C 239.628 412.266, 241.261 413.402, 244.405 412.613 C 245.736 412.279, 251.540 407.504, 257.302 402.003 C 263.064 396.501, 268.391 392.006, 269.139 392.014 C 269.888 392.022, 274.100 395.232, 278.500 399.148 C 288.595 408.133, 293.847 412, 295.956 412 C 298.166 412, 302.653 408.598, 313.202 398.925 L 321.978 390.877 332.739 400.547 C 345.813 412.295, 347.327 413.348, 349.943 412.518 C 351.066 412.162, 357.403 406.949, 364.027 400.935 C 370.650 394.921, 376.291 390, 376.562 390 C 376.833 390, 380.178 391.636, 383.995 393.636 C 390.734 397.166, 391.011 397.223, 393.513 395.584 C 394.930 394.655, 396.519 392.765, 397.045 391.383 C 397.632 389.836, 398 342.764, 398 269.012 L 398 149.153 395.411 146.077 L 392.822 143 332.470 143 C 293.314 143, 271.901 143.351, 271.500 144 M 178.011 162.552 C 171.283 164.427, 163.201 169.707, 162.383 172.763 C 161.744 175.150, 163.120 177.459, 166.148 179.079 C 167.530 179.819, 169.630 179.174, 174.991 176.366 C 183.993 171.651, 188.768 171.549, 196.494 175.910 C 203.164 179.674, 206.397 179.850, 208.548 176.567 C 210.496 173.593, 209.484 171.221, 204.737 167.639 C 197.146 161.911, 187.142 160.007, 178.011 162.552 M 181.120 183.628 C 179.842 184.524, 178.206 186.658, 177.486 188.371 C 176.391 190.975, 176.410 192.045, 177.599 194.891 C 179.456 199.335, 181.686 200.929, 186.104 200.968 C 194.510 201.042, 198.223 191.069, 192.077 184.923 C 188.741 181.587, 184.714 181.111, 181.120 183.628 M 275 218.987 L 275 226 284.750 226.106 C 314.134 226.426, 345.447 225.953, 346.221 225.179 C 346.709 224.691, 346.972 221.638, 346.804 218.396 L 346.500 212.500 310.750 212.237 L 275 211.975 275 218.987 M 197.500 258.907 L 192.500 259.500 192.500 265.500 L 192.500 271.500 266.729 271.756 L 340.959 272.013 341.481 269.756 C 341.906 267.916, 341.758 263.601, 341.101 258.750 C 340.983 257.877, 204.935 258.026, 197.500 258.907 M 192 311 L 192 318 266.500 318 L 341 318 341 311 L 341 304 266.500 304 L 192 304 192 311" stroke="none" fill="#139cda" fill-rule="evenodd"/>
</svg>
